<?xml version="1.0" encoding="UTF-8"?>
<svg version="1.1" viewBox="0 0 90.847 61.475" xmlns="http://www.w3.org/2000/svg" xmlns:cc="http://creativecommons.org/ns#" xmlns:dc="http://purl.org/dc/elements/1.1/" xmlns:rdf="http://www.w3.org/1999/02/22-rdf-syntax-ns#">
<metadata>
<rdf:RDF>
<cc:Work rdf:about="">
<dc:format>image/svg+xml</dc:format>
<dc:type rdf:resource="http://purl.org/dc/dcmitype/StillImage"/>
<dc:title/>
</cc:Work>
</rdf:RDF>
</metadata>
<g transform="matrix(1 0 0 -1 -3.8147e-6 47.464)">
<path d="m0 0v25.054h9.006v-3.749h-5.778v-6.453h4.323v-3.745h-4.323v-11.107h-3.228z" fill="#231f20"/>
</g>
<path d="m10.957 22.41h3.226v25.054h-3.226v-25.054z" fill="#231f20"/>
<g transform="matrix(1 0 0 -1 24.335 22.41)">
<path d="m0 0h3.174l-3.93-25.054h-3.229l-3.926 25.054h3.171l2.344-17.384h0.05l2.346 17.384z" fill="#231f20"/>
</g>
<g transform="matrix(1 0 0 -1 29.304 47.464)">
<path d="m0 0v25.054h8.639v-3.749h-5.411v-6.453h4.163v-3.745h-4.163v-7.358h5.778v-3.749h-9.006z" fill="#231f20"/>
</g>
<g transform="matrix(1 0 0 -1 53.524 28.586)">
<path d="m0 0c-0.132 2.15-0.989 2.775-1.716 2.775-1.039 0-1.614-0.902-1.614-2.466 0-4.267 6.56-6.313 6.56-13.116 0-4.129-2.086-6.418-5.103-6.418-2.992 0-4.708 3.191-4.842 6.939l3.073 0.59c0.132-2.532 0.887-3.783 1.926-3.783 1.119 0 1.872 0.8 1.872 2.291 0 4.963-6.556 6.284-6.556 13.464 0 3.99 1.821 6.249 4.996 6.249 2.63 0 4.19-2.534 4.476-6.073l-3.072-0.452z" fill="#231f20"/>
</g>
<g transform="matrix(1 0 0 -1 60.723 26.159)">
<path d="m0 0h-3.119v3.749h9.474v-3.749h-3.127v-21.305h-3.228v21.305z" fill="#231f20"/>
</g>
<g transform="matrix(1 0 0 -1 71.346 38.162)">
<path d="m0 0 1.27 10.753h0.057l1.274-10.753h-2.601zm3.305 15.752h-4.011l-3.459-25.054h3.121l0.572 5.552h3.541l0.572-5.552h3.125l-3.461 25.054z" fill="#231f20"/>
</g>
<g transform="matrix(1 0 0 -1 84.738 33.653)">
<path d="m0 0h-1.145v7.706h1.145c1.743 0 2.396-0.87 2.396-3.854 0-2.983-0.653-3.852-2.396-3.852m3.357-2.462c1.093 0.66 2.263 2.289 2.263 6.314 0 5.343-1.848 7.392-5.467 7.392h-4.528v-25.055h3.23v10.271c0.573 0 1.249 0.036 1.662 0.104l2.294-10.375h3.28l-2.734 11.349z" fill="#231f20"/>
</g>
<g transform="matrix(1 0 0 -1 1.6543 56.245)">
<path d="m0 0h-0.461v2.844h0.461c0.778 0 1.019-0.32 1.019-1.421 0-1.103-0.241-1.423-1.019-1.423m0.055 4.151h-1.709v-9.25h1.193v3.793h0.516c1.473 0 2.157 0.755 2.157 2.729 0 1.972-0.684 2.728-2.157 2.728" fill="#231f20"/>
</g>
<g transform="matrix(1 0 0 -1 10.044 56.245)">
<path d="m0 0h-0.424v2.844h0.424c0.644 0 0.884-0.32 0.884-1.421 0-1.103-0.24-1.423-0.884-1.423m1.237-0.911c0.404 0.243 0.84 0.845 0.84 2.334 0 1.972-0.685 2.728-2.02 2.728h-1.672v-9.25h1.191v3.792c0.211 0 0.463 0.012 0.613 0.038l0.846-3.83h1.213l-1.011 4.188z" fill="#231f20"/>
</g>
<g transform="matrix(1 0 0 -1 19.314 59.062)">
<path d="m0 0c0-0.692-0.152-1.026-0.63-1.026-0.484 0-0.637 0.334-0.637 1.026v4.687c0 0.693 0.153 1.028 0.637 1.028 0.478 0 0.63-0.335 0.63-1.028v-4.687zm-0.63 7.096c-1.252 0-1.828-1.061-1.828-2.367v-4.77c0-1.306 0.576-2.371 1.828-2.371 1.25 0 1.823 1.065 1.823 2.371v4.77c0 1.306-0.573 2.367-1.823 2.367" fill="#231f20"/>
</g>
<g transform="matrix(1 0 0 -1 25.281 61.344)">
<path d="m0 0v9.251h3.326v-1.385h-2.133v-2.384h1.596v-1.383h-1.596v-4.099h-1.193z" fill="#231f20"/>
</g>
<g transform="matrix(1 0 0 -1 33.17 61.344)">
<path d="m0 0v9.251h3.192v-1.385h-1.997v-2.384h1.539v-1.383h-1.539v-2.716h2.132v-1.383h-3.327z" fill="#231f20"/>
</g>
<g transform="matrix(1 0 0 -1 43.194 54.376)">
<path d="m0 0c-0.045 0.796-0.365 1.028-0.634 1.028-0.387 0-0.594-0.334-0.594-0.912 0-1.575 2.425-2.332 2.425-4.844 0-1.524-0.773-2.371-1.887-2.371-1.105 0-1.741 1.178-1.788 2.565l1.133 0.218c0.05-0.936 0.324-1.397 0.711-1.397 0.411 0 0.69 0.294 0.69 0.845 0 1.83-2.42 2.321-2.42 4.971 0 1.476 0.673 2.306 1.845 2.306 0.973 0 1.548-0.936 1.654-2.24l-1.135-0.169z" fill="#231f20"/>
</g>
<g transform="matrix(1 0 0 -1 51.007 54.376)">
<path d="m0 0c-0.05 0.796-0.367 1.028-0.635 1.028-0.383 0-0.595-0.334-0.595-0.912 0-1.575 2.419-2.332 2.419-4.844 0-1.524-0.765-2.371-1.879-2.371-1.106 0-1.741 1.178-1.789 2.565l1.134 0.218c0.047-0.936 0.327-1.397 0.71-1.397 0.413 0 0.693 0.294 0.693 0.845 0 1.83-2.424 2.321-2.424 4.971 0 1.476 0.676 2.306 1.845 2.306 0.974 0 1.55-0.936 1.658-2.24l-1.137-0.169z" fill="#231f20"/>
</g>
<path d="m56.81 52.093h1.191v9.251h-1.191v-9.251z" fill="#231f20"/>
<g transform="matrix(1 0 0 -1 65.323 59.062)">
<path d="m0 0c0-0.692-0.149-1.026-0.635-1.026-0.478 0-0.631 0.334-0.631 1.026v4.687c0 0.693 0.153 1.028 0.631 1.028 0.486 0 0.635-0.335 0.635-1.028v-4.687zm-0.635 7.096c-1.247 0-1.822-1.061-1.822-2.367v-4.77c0-1.306 0.575-2.371 1.822-2.371 1.253 0 1.827 1.065 1.827 2.371v4.77c0 1.306-0.574 2.367-1.827 2.367" fill="#231f20"/>
</g>
<g transform="matrix(1 0 0 -1 71.37 61.344)">
<path d="m0 0v9.251h1.105l1.452-5.295h0.016v5.295h1.077v-9.251h-1.034l-1.522 5.78h-0.02v-5.78h-1.074z" fill="#231f20"/>
</g>
<g transform="matrix(1 0 0 -1 80.921 57.91)">
<path d="m0 0 0.469 3.974h0.02l0.47-3.974h-0.959zm1.221 5.817h-1.48l-1.28-9.251h1.155l0.211 2.047h1.307l0.214-2.047h1.151l-1.278 9.251z" fill="#231f20"/>
</g>
<g transform="matrix(1 0 0 -1 87.778 61.344)">
<path d="m0 0v9.251h1.196v-7.868h1.873v-1.383h-3.069z" fill="#231f20"/>
</g>
<g transform="matrix(1 0 0 -1 45.404 7.061)">
<path d="m0 0c9.629 0 20.796-8.051 20.796-8.051l-20.802 15.112-20.796-15.114s11.167 8.053 20.802 8.053" fill="#b7292f"/>
</g>
<g transform="matrix(1 0 0 -1 55.961 10.068)">
<path d="m0 0c-3.311 1.365-7.035 2.442-10.558 2.442-4.352 3e-3 -9.018-1.645-12.824-3.444 3.568 1.445 7.855 2.692 11.818 2.554 9.049-0.317 19.287-7.958 19.287-7.958l-7.723 6.406z" fill="#58595b"/>
</g>
<g transform="matrix(1 0 0 -1 55.322 12.161)">
<path d="m0 0c-4.372 2.088-8.046 3.075-11.342 3.106-4.494 0.042-9.092-1.692-11.219-2.518 4.048 1.152 8.27 2.615 14.419 0.993 3.644-0.959 9.443-3.644 13.87-7.035 0 0-5.72 5.448-5.728 5.454" fill="#808083"/>
</g>
<g transform="matrix(1 0 0 -1 54.243 13.993)">
<path d="m0 0c-4.42 2.169-7.228 3.23-10.512 3.51-4.48 0.387-9.003-1.076-11.185-1.736 4.173 0.953 8.587 2.058 14.453-0.107 3.535-1.306 6.941-2.935 11.511-6.342 0 0-4.263 4.672-4.267 4.675" fill="#a5a7aa"/>
</g>
<g transform="matrix(1 0 0 -1 52.811 15.586)">
<path d="m0 0c-4.303 2.309-6.022 2.941-9.221 3.629-4.396 0.946-9.093-0.326-11.283-0.887 5.79 1.186 10.063 0.701 14.4-1.222 3.517-1.559 6.143-3.143 9.183-5.423 0 0-3.073 3.897-3.079 3.903" fill="#cfd1d2"/>
</g>
</svg>
